<svg xmlns="http://www.w3.org/2000/svg" xmlns:xlink="http://www.w3.org/1999/xlink" width="80px" height="80px" viewBox="0 0 80 79" version="1.1">
<g id="surface1">

<path style="fill-rule: evenodd; fill: rgb(74, 125, 41); fill-opacity: 1; opacity: 1;" d="M 28.730469 60.949219 C 28.207031 60.707031 27.78125 59.566406 27.636719 59.210938 C 27.542969 58.972656 27.625 59.199219 27.546875 58.964844 C 27.347656 58.371094 27.082031 57.0625 27.039062 56.503906 C 26.871094 54.132812 26.992188 53.773438 26.9375 51.472656 C 26.917969 50.636719 26.820312 50.601562 27.164062 50.140625 C 27.46875 49.730469 28.078125 48.980469 28.644531 48.808594 C 28.554688 49.429688 28.664062 50.808594 28.65625 51.757812 C 28.648438 52.867188 28.648438 60.242188 28.730469 60.949219 Z M 35.183594 66.375 C 34.738281 66.429688 34.429688 66.207031 34.089844 65.949219 C 33.671875 65.628906 33.984375 61.578125 33.957031 60.855469 C 33.949219 60.566406 33.941406 60.570312 33.886719 60.300781 L 33.925781 51.246094 C 33.949219 50.34375 33.792969 46.492188 34.019531 46.011719 C 35.238281 45.765625 35.402344 45.035156 35.257812 49.132812 L 35.257812 52.628906 C 35.304688 54.945312 35.132812 58.90625 35.273438 60.738281 C 35.335938 61.597656 35.316406 65.976562 35.183594 66.375 Z M 46.324219 58.328125 C 46.304688 59.070312 46.398438 60.394531 46.332031 61.28125 C 46.242188 62.542969 46.308594 63.4375 46.335938 64.707031 C 46.390625 67.125 46.71875 66.882812 44.648438 67.355469 L 43.777344 67.53125 C 43.332031 67.597656 43.40625 67.574219 43.078125 67.617188 C 42.199219 67.730469 41.625 67.777344 40.597656 67.722656 C 39.722656 67.671875 38.40625 67.636719 37.601562 67.179688 C 37.464844 66.40625 37.546875 65.90625 37.570312 65.121094 C 37.683594 61.324219 37.574219 57.355469 37.574219 53.507812 C 37.574219 53.484375 37.578125 53.441406 37.578125 53.421875 L 37.570312 47.804688 C 37.527344 45.101562 37.199219 45.445312 39.109375 45.160156 L 40.910156 45.117188 C 42.035156 45.058594 44.019531 45.222656 45.476562 45.398438 C 46.992188 45.582031 46.117188 47.234375 46.351562 48.382812 C 45.789062 48.109375 45.15625 47.511719 44.523438 47.523438 C 44.910156 47.847656 45.097656 47.773438 45.535156 48.125 C 45.863281 48.382812 46.175781 48.609375 46.578125 48.882812 C 47.015625 49.179688 47.15625 49.210938 47.640625 49.59375 C 47.925781 49.820312 47.765625 49.734375 48.121094 49.957031 C 48.292969 50.066406 48.542969 50.203125 48.683594 50.300781 L 50.808594 51.710938 C 51.628906 52.234375 52.117188 52.90625 52.804688 52.976562 C 52.65625 52.691406 51.859375 52.304688 51.625 51.933594 C 51.394531 51.566406 51.609375 47.574219 51.695312 47.355469 C 51.957031 47.511719 52.589844 47.726562 52.859375 47.917969 C 53.597656 48.433594 55.289062 49.78125 55.542969 50.457031 C 55.761719 51.042969 55.609375 54.285156 55.582031 55.265625 C 55.546875 56.589844 55.300781 58.621094 54.390625 60.222656 C 53.867188 61.144531 52.589844 63.289062 51.5 63.769531 C 51.738281 63.167969 51.535156 63.769531 51.574219 63.378906 C 51.746094 61.71875 51.5 58.390625 51.5625 56.5 C 51.585938 55.855469 51.761719 55.238281 51.464844 54.914062 L 50.972656 54.335938 C 51.523438 54.347656 51.734375 54.535156 52.070312 54.335938 C 51.589844 53.660156 51.707031 54.425781 51.566406 53.382812 C 51.558594 53.324219 51.558594 52.960938 51.554688 52.929688 C 51.492188 52.394531 51.542969 52.679688 51.453125 52.472656 C 50.820312 52.234375 50.460938 51.988281 50.058594 51.710938 L 48.714844 50.8125 C 48.582031 50.726562 48.070312 50.457031 48.039062 50.429688 C 47.648438 50.097656 46.9375 49.5625 46.382812 49.28125 L 46.351562 50.289062 L 46.054688 50.09375 C 45.84375 49.921875 43.257812 48.402344 42.3125 48.183594 C 42.761719 48.25 43.523438 49.046875 44.046875 49.328125 C 44.507812 49.574219 44.160156 49.28125 44.605469 49.664062 C 45.40625 50.355469 46.355469 51.023438 47.261719 51.542969 L 50.363281 53.597656 C 50.777344 53.851562 50.707031 53.675781 50.941406 53.996094 L 51.066406 54.480469 C 50.65625 54.449219 50.101562 54.101562 49.789062 53.871094 C 49.3125 53.515625 49.105469 53.550781 48.710938 53.199219 C 48.117188 52.679688 47.136719 51.957031 46.300781 51.734375 C 46.332031 54.234375 46.390625 55.691406 46.324219 58.328125 Z M 26.113281 46.15625 C 25.96875 49.359375 26.085938 52.851562 26.089844 56.085938 C 26.097656 60.5 27.179688 63.949219 30.308594 66.691406 C 33.257812 69.273438 36.851562 70.5 41.207031 70.464844 C 46.683594 70.421875 51.683594 68.316406 54.523438 63.855469 C 56.132812 61.324219 56.496094 59.445312 56.488281 55.941406 C 56.480469 52.675781 56.511719 49.394531 56.480469 46.089844 C 55.703125 45.914062 54.351562 45.164062 53.105469 44.886719 C 45.667969 43.246094 32.355469 43.199219 26.113281 46.15625 " data-index="1"></path>
<path style="fill-rule: evenodd; fill: rgb(5, 5, 5); fill-opacity: 1; opacity: 1;" d="M 26.113281 46.15625 C 32.355469 43.199219 45.667969 43.246094 53.105469 44.886719 C 54.351562 45.164062 55.703125 45.914062 56.480469 46.089844 C 56.511719 49.394531 56.480469 52.675781 56.488281 55.941406 C 56.496094 59.445312 56.132812 61.324219 54.523438 63.855469 C 51.683594 68.316406 46.683594 70.421875 41.207031 70.464844 C 36.851562 70.5 33.257812 69.273438 30.308594 66.691406 C 27.179688 63.949219 26.097656 60.5 26.089844 56.085938 C 26.085938 52.851562 25.96875 49.359375 26.113281 46.15625 Z M 50.058594 33.898438 C 49.859375 35.03125 48.570312 36.65625 50.183594 37.558594 C 51.085938 38.066406 51.46875 37.671875 52.125 37.769531 C 52.503906 37.824219 52.402344 37.941406 52.835938 38.144531 C 54.140625 38.757812 54.988281 37.757812 55.683594 37.652344 C 56.617188 37.503906 57.730469 37.703125 58.371094 35.691406 C 58.859375 34.152344 58.21875 34.25 58.96875 33.605469 L 58.871094 42.445312 C 55.28125 42.539062 51.828125 42.402344 48.285156 42.449219 L 37.945312 42.476562 L 37.464844 42.320312 C 36.851562 42.566406 36.09375 42.535156 35.398438 42.34375 L 35.097656 42.457031 C 34.742188 42.53125 33.632812 42.457031 33.203125 42.453125 C 32.058594 42.453125 28.375 42.601562 27.898438 42.339844 C 27.371094 42.644531 24.609375 42.578125 23.816406 42.382812 L 23.898438 33.746094 C 24.59375 34.546875 23.8125 36.160156 25.421875 37.207031 C 26.414062 37.851562 26.433594 37.464844 27.207031 37.660156 C 27.699219 37.789062 28.132812 38.234375 28.8125 38.320312 C 29.863281 38.453125 29.84375 37.855469 30.695312 37.792969 C 31.484375 37.734375 31.960938 37.960938 32.679688 37.449219 C 33.980469 36.523438 32.882812 34.953125 32.625 33.9375 C 32.609375 33.394531 32.601562 33.773438 32.769531 33.542969 L 49.910156 33.550781 C 50.089844 33.757812 50.28125 33.234375 50.058594 33.898438 Z M 52.925781 32.269531 L 53.1875 34.4375 C 53.109375 35.460938 52.820312 36.378906 52.210938 36.90625 C 51.46875 37.539062 50.527344 37.304688 50.042969 36.523438 C 49.929688 35.734375 50.496094 34.636719 50.730469 33.847656 L 50.769531 33.554688 L 50.65625 32.398438 C 50.046875 32.742188 50.382812 32.851562 49.53125 32.8125 C 49.683594 32.25 49.933594 31.855469 50.425781 31.582031 C 50.898438 30.839844 52.269531 31.015625 52.929688 31.492188 C 53.085938 31.089844 52.914062 30.988281 53.632812 30.847656 C 54.683594 30.648438 55.300781 31.402344 55.523438 31.421875 C 55.714844 31.441406 55.875 31.207031 56.523438 31.289062 C 57.691406 31.433594 58.285156 33.476562 57.914062 34.867188 C 57.722656 35.996094 56.953125 37.394531 55.738281 36.933594 C 56.980469 33.644531 56.214844 34.121094 56.011719 32.125 C 55.832031 32.234375 55.839844 32.085938 55.699219 32.308594 L 55.914062 34.480469 C 55.914062 36.304688 54.433594 38.789062 52.636719 37.199219 C 54.410156 35.042969 53.359375 33.203125 53.269531 32.21875 Z M 37.78125 31.101562 C 38.617188 28.394531 44.640625 28.65625 44.839844 31.269531 C 45.25 31.785156 45.039062 32.359375 44.84375 33.046875 L 37.777344 33.042969 C 37.492188 32.328125 37.414062 31.789062 37.78125 31.101562 Z M 24.773438 34.859375 C 24.402344 33.453125 24.984375 31.453125 26.152344 31.300781 C 26.910156 31.203125 26.785156 31.457031 27.257812 31.355469 C 27.5 31.300781 28.347656 30.539062 29.289062 30.914062 C 29.828125 31.132812 29.597656 31.007812 29.742188 31.492188 C 30.398438 31.050781 31.800781 30.820312 32.242188 31.5625 C 32.691406 31.847656 33.039062 32.277344 33.066406 32.84375 C 32.421875 32.804688 32.554688 32.765625 32.1875 32.421875 C 32.179688 32.433594 32.023438 32.675781 31.996094 32.714844 L 31.839844 32.917969 L 31.976562 34.441406 C 32.714844 35.152344 32.71875 36.023438 32.546875 36.910156 C 31.257812 37.367188 30.054688 37.507812 29.628906 35.234375 C 29.492188 34.503906 29.339844 33.523438 29.640625 32.769531 C 29.640625 32.183594 29.757812 32.605469 29.515625 32.28125 C 28.480469 34.09375 29.179688 35.960938 30.039062 37.210938 C 28.566406 38.726562 27.027344 36.695312 26.84375 35.121094 C 26.703125 34.128906 26.660156 33.246094 27.070312 32.269531 L 26.703125 32.121094 C 26.554688 33.132812 26.171875 33.386719 26.304688 34.765625 C 26.464844 36.488281 27.019531 36.296875 26.792969 37.039062 C 25.527344 37.136719 24.925781 35.933594 24.773438 34.859375 Z M 45.667969 32.289062 C 47.007812 31.640625 46.277344 32.585938 48.113281 30.863281 C 48.1875 32.015625 46.734375 32.820312 45.519531 32.796875 Z M 35.171875 31.503906 C 36.511719 32.570312 36.824219 31.644531 37.171875 32.835938 C 35.972656 32.8125 34.699219 32.054688 34.507812 30.929688 C 34.539062 30.953125 34.585938 30.984375 34.609375 31.003906 Z M 51.429688 30.394531 C 51.554688 30.273438 51.347656 29.941406 51.953125 30.394531 C 51.863281 30.441406 51.941406 30.464844 51.695312 30.476562 C 51.382812 30.496094 51.519531 30.433594 51.429688 30.394531 Z M 50.894531 30.5 C 50.859375 30.496094 50.820312 30.457031 50.804688 30.445312 L 50.496094 30.273438 C 50.488281 30.273438 50.453125 30.28125 50.441406 30.28125 C 50.394531 30.285156 50.191406 30.519531 49.746094 30.308594 C 49.238281 30.066406 49.265625 29.496094 49.378906 28.894531 C 49.566406 27.914062 49.75 25.8125 49.960938 25.570312 C 51.074219 26.921875 50.980469 28.402344 50.894531 30.5 Z M 31.753906 30.503906 C 31.523438 28.609375 31.539062 26.515625 32.71875 25.496094 C 32.867188 26.289062 32.777344 26.984375 32.976562 27.863281 C 33.167969 28.699219 33.289062 29.234375 33.050781 30.109375 C 32.671875 30.222656 32.480469 30.199219 32.144531 30.074219 C 32.199219 30.363281 32.324219 30.625 32.316406 30.675781 Z M 51.972656 27.296875 C 52.214844 26.980469 52.128906 27.019531 52.570312 26.820312 C 53.671875 27.269531 53.863281 28.4375 53.738281 29.527344 C 53.640625 30.398438 53.414062 30.15625 53.273438 30.1875 C 53.132812 30.335938 53.425781 30.21875 52.9375 30.484375 C 52.707031 30.609375 52.78125 30.574219 52.421875 30.617188 L 51.609375 29.449219 C 51.929688 29.285156 51.996094 29.140625 52.304688 29.089844 C 53.035156 28.96875 53.019531 29.609375 53.015625 29.003906 C 52.753906 28.59375 52.710938 28.675781 52.230469 28.4375 C 51.988281 28.644531 51.582031 28.824219 51.328125 28.976562 L 51.382812 27.503906 Z M 30.445312 28.429688 C 29.679688 28.742188 29.753906 28.640625 29.460938 29.382812 C 30.097656 29.0625 30.203125 28.847656 30.980469 29.476562 C 30.769531 29.785156 30.449219 30.222656 30.214844 30.621094 C 29.78125 30.566406 29.695312 30.503906 29.398438 30.1875 C 29.0625 30.179688 29.394531 30.414062 28.964844 30.113281 C 28.765625 28.589844 28.777344 27.28125 30.109375 26.8125 C 30.519531 26.996094 30.359375 26.9375 30.683594 27.164062 L 31.230469 27.441406 L 31.195312 28.925781 C 31.015625 28.828125 30.996094 28.835938 30.777344 28.699219 C 30.386719 28.453125 30.617188 28.605469 30.445312 28.429688 Z M 43.738281 26.386719 C 45.25 23.636719 48.367188 28.566406 45.519531 30.820312 C 45.09375 30.675781 45.335938 30.898438 45.195312 30.53125 L 44.75 30.101562 C 44.960938 29.199219 45.140625 29.386719 45.128906 28.15625 L 44.738281 27.917969 C 44.515625 27.539062 44.515625 27.886719 44.664062 27.332031 C 43.992188 26.71875 43.460938 27.300781 43.289062 28.21875 C 43.222656 28.558594 43.25 28.679688 43.113281 28.914062 C 42.992188 28.6875 43.015625 28.613281 43.042969 28.289062 C 43.054688 28.15625 43.117188 27.667969 43.152344 27.488281 C 43.296875 26.777344 43.640625 26.566406 43.65625 26.484375 C 43.671875 26.425781 43.710938 26.417969 43.738281 26.386719 Z M 37.941406 27.378906 L 37.929688 27.898438 L 37.507812 28.203125 C 37.46875 28.910156 37.6875 29.402344 37.910156 29.96875 L 37.375 30.746094 C 35.382812 30.953125 35.304688 24.214844 38.714844 25.988281 C 39.328125 26.746094 39.648438 27.613281 39.578125 28.953125 L 39.421875 28.621094 C 39.410156 28.582031 39.402344 28.539062 39.390625 28.496094 C 39.390625 28.492188 39.136719 26.273438 37.941406 27.378906 Z M 43.910156 24.878906 L 43.753906 24.578125 C 44.089844 24.019531 44.675781 23.664062 45.324219 23.597656 C 45.90625 23.542969 46.726562 23.710938 46.925781 24.371094 C 45.496094 23.597656 43.65625 24.359375 44.207031 24.738281 C 46.015625 23.574219 47.117188 24.972656 47.652344 25.183594 L 47.304688 23.746094 C 48 24.039062 48.898438 24.558594 49.238281 24.992188 C 49.359375 26.105469 49.445312 28.113281 48.8125 28.898438 C 48.917969 29.964844 48.988281 29.96875 49.339844 30.679688 C 50.117188 31.0625 49.464844 31.570312 48.890625 32.589844 C 48.464844 33.339844 49 32.792969 48.308594 33.113281 C 48.671875 32.050781 48.679688 32.222656 48.585938 31.003906 L 48.140625 30.144531 C 47.769531 30.742188 46.90625 31.679688 45.847656 31.636719 L 45.554688 31.773438 C 45.34375 30.8125 45.738281 31.273438 46.324219 30.648438 C 47.273438 29.632812 47.246094 27.019531 46.371094 26.011719 C 44.449219 23.808594 42.597656 26.414062 42.632812 28.734375 L 40.15625 28.769531 C 40.023438 28.613281 40.007812 28.859375 40.007812 28.203125 L 39.679688 26.816406 C 39.210938 26.09375 38.988281 25.3125 37.789062 25.257812 C 36.871094 25.21875 36.191406 25.941406 35.90625 26.621094 C 34.691406 29.515625 36.796875 31.003906 37.089844 31.414062 C 37.039062 31.851562 37.035156 31.617188 36.90625 31.78125 C 35.085938 31.425781 35.269531 30.886719 34.34375 30.121094 L 33.953125 31.507812 C 33.941406 32.316406 34.082031 32.441406 34.234375 33.039062 C 33.75 32.84375 33.808594 32.570312 33.292969 31.773438 C 32.859375 31.101562 32.6875 30.828125 33.347656 30.492188 C 33.792969 29.617188 33.683594 28.695312 33.46875 27.671875 C 33.265625 27.0625 33.175781 25.738281 33.359375 25.132812 C 33.53125 24.558594 34.59375 24.027344 35.203125 23.875 L 34.898438 25.226562 L 36.003906 24.539062 C 37.902344 23.679688 38.882812 25.285156 39.339844 25.535156 C 38.992188 23.484375 38.414062 23.332031 38 22.605469 C 39.902344 22.355469 42.707031 21.785156 44.519531 22.65625 L 44.234375 23.023438 C 43.726562 23.683594 43.296875 24.65625 43.265625 25.582031 Z M 33.945312 23.832031 C 33.625 21.4375 38.796875 20.8125 40.59375 20.773438 C 42.796875 20.726562 44.992188 21.003906 46.964844 21.90625 C 47.621094 22.203125 47.941406 22.4375 47.859375 23.390625 C 46.808594 23.035156 45.785156 22.46875 44.671875 22.171875 C 43.34375 21.820312 42.042969 21.691406 40.59375 21.78125 C 36.726562 22.027344 36.214844 23.046875 33.945312 23.832031 Z M 32.054688 24.992188 C 31.390625 23.304688 34.003906 21.554688 35.328125 20.941406 C 37.1875 20.078125 39.183594 19.558594 41.636719 19.589844 C 47.132812 19.65625 51.441406 23.695312 50.558594 25.339844 C 50.394531 24.066406 50.140625 23.675781 49.398438 23.015625 C 48.992188 22.652344 47.855469 21.953125 47.226562 21.664062 C 45.523438 20.875 43.5 20.472656 41.339844 20.46875 C 38.476562 20.460938 35.160156 21.09375 33.136719 22.875 C 32.878906 23.105469 32.503906 23.421875 32.289062 23.796875 C 31.875 24.503906 32.179688 24.582031 32.054688 24.992188 Z M 38.015625 19.425781 C 37.117188 19.832031 35.425781 20.265625 34.296875 20.964844 C 33.8125 21.269531 33.710938 21.382812 33.210938 21.613281 L 32.644531 22.078125 C 32.292969 22.777344 32.238281 22.652344 31.839844 23.203125 C 30.796875 24.648438 32.121094 24.628906 31.414062 26.246094 L 31.207031 26.699219 C 31.195312 26.675781 31.167969 26.78125 31.144531 26.820312 C 28.734375 25.308594 29.917969 19.664062 31.371094 18.765625 C 31.5 17.539062 34.445312 14.949219 35.359375 14.265625 C 39.5625 11.113281 43.65625 11.339844 47.671875 14.5 C 48.542969 15.183594 51.035156 17.875 51.355469 19.105469 C 52.867188 20.492188 53.765625 25.703125 51.433594 26.976562 C 51.273438 26.617188 51 25.917969 51.019531 25.621094 C 51.046875 25.160156 51.328125 25.03125 51.089844 24.257812 C 50.828125 23.394531 50.105469 22.976562 49.605469 22.074219 L 48.59375 21.265625 C 47.789062 20.929688 47.375 20.480469 46.664062 20.179688 C 45.972656 19.890625 45.296875 19.710938 44.574219 19.453125 C 43.375 19.265625 42.464844 19.101562 41.191406 19.125 C 40.089844 19.144531 38.960938 19.433594 38.015625 19.425781 Z M 29.617188 26.160156 C 28.183594 27.523438 28.09375 27.484375 28.210938 30.089844 C 27.101562 30.351562 27.445312 30.433594 26.113281 30.527344 C 25.25 30.589844 24.824219 31.023438 24.472656 31.542969 C 23.996094 32.242188 24.152344 32.542969 23.597656 33.15625 C 22.980469 33.84375 23.164062 34.230469 23.164062 35.355469 C 23.160156 37.058594 23.164062 38.761719 23.160156 40.464844 C 23.160156 42.957031 22.726562 43.449219 25.351562 43.554688 C 26.074219 50.96875 23.964844 57.691406 27.199219 64.082031 C 32.78125 75.125 49.25 75.605469 55.320312 64.199219 C 57.691406 59.75 57.195312 54.761719 57.183594 49.226562 C 57.179688 47.570312 57.035156 45.148438 57.222656 43.585938 C 60.246094 43.121094 59.652344 44.324219 59.628906 35.503906 C 59.621094 32.277344 59.316406 33.832031 58.609375 32.609375 C 58.433594 32.304688 58.472656 32.113281 58.214844 31.679688 C 57.0625 29.730469 55.949219 31.105469 54.414062 29.953125 C 54.589844 27.078125 53.964844 27.199219 53.105469 26.160156 C 53.5 23.742188 54.050781 23.074219 52.925781 20.570312 C 48.488281 10.679688 39.09375 8.078125 32.261719 16.167969 C 29.929688 18.925781 28.304688 21.546875 29.617188 26.160156 " data-index="2"></path>
<path style=" stroke:none;fill-rule:evenodd;fill:rgb(40.000001%,67.843139%,21.176471%);fill-opacity:1;" d="M 37.601562 67.179688 C 38.40625 67.636719 39.722656 67.671875 40.597656 67.722656 C 41.625 67.777344 42.199219 67.730469 43.078125 67.617188 C 43.40625 67.574219 43.332031 67.597656 43.777344 67.53125 L 44.648438 67.355469 C 46.71875 66.882812 46.390625 67.125 46.335938 64.707031 C 46.308594 63.4375 46.242188 62.542969 46.332031 61.28125 C 46.398438 60.394531 46.304688 59.070312 46.324219 58.328125 C 46.390625 55.691406 46.332031 54.234375 46.300781 51.734375 C 47.136719 51.957031 48.117188 52.679688 48.710938 53.199219 C 49.105469 53.550781 49.3125 53.515625 49.789062 53.871094 C 50.101562 54.101562 50.65625 54.449219 51.066406 54.480469 L 50.941406 53.996094 C 50.707031 53.675781 50.777344 53.851562 50.363281 53.597656 L 47.261719 51.542969 C 46.355469 51.023438 45.40625 50.355469 44.605469 49.664062 C 44.160156 49.28125 44.507812 49.574219 44.046875 49.328125 C 43.523438 49.046875 42.761719 48.25 42.3125 48.183594 C 43.257812 48.402344 45.84375 49.921875 46.054688 50.09375 L 46.351562 50.289062 L 46.382812 49.28125 C 46.9375 49.5625 47.648438 50.097656 48.039062 50.429688 C 48.070312 50.457031 48.582031 50.726562 48.714844 50.8125 L 50.058594 51.710938 C 50.460938 51.988281 50.820312 52.234375 51.453125 52.472656 C 51.542969 52.679688 51.492188 52.394531 51.554688 52.929688 C 51.558594 52.960938 51.558594 53.324219 51.566406 53.382812 C 51.707031 54.425781 51.589844 53.660156 52.070312 54.335938 C 51.734375 54.535156 51.523438 54.347656 50.972656 54.335938 L 51.464844 54.914062 C 51.761719 55.238281 51.585938 55.855469 51.5625 56.5 C 51.5 58.390625 51.746094 61.71875 51.574219 63.378906 C 51.535156 63.769531 51.738281 63.167969 51.5 63.769531 C 52.589844 63.289062 53.867188 61.144531 54.390625 60.222656 C 55.300781 58.621094 55.546875 56.589844 55.582031 55.265625 C 55.609375 54.285156 55.761719 51.042969 55.542969 50.457031 C 55.289062 49.78125 53.597656 48.433594 52.859375 47.917969 C 52.589844 47.726562 51.957031 47.511719 51.695312 47.355469 C 51.609375 47.574219 51.394531 51.566406 51.625 51.933594 C 51.859375 52.304688 52.65625 52.691406 52.804688 52.976562 C 52.117188 52.90625 51.628906 52.234375 50.808594 51.710938 L 48.683594 50.300781 C 48.542969 50.203125 48.292969 50.066406 48.121094 49.957031 C 47.765625 49.734375 47.925781 49.820312 47.640625 49.59375 C 47.15625 49.210938 47.015625 49.179688 46.578125 48.882812 C 46.175781 48.609375 45.863281 48.382812 45.535156 48.125 C 45.097656 47.773438 44.910156 47.847656 44.523438 47.523438 C 45.15625 47.511719 45.789062 48.109375 46.351562 48.382812 C 46.117188 47.234375 46.992188 45.582031 45.476562 45.398438 C 44.019531 45.222656 42.035156 45.058594 40.910156 45.117188 L 39.109375 45.160156 C 37.199219 45.445312 37.527344 45.101562 37.570312 47.804688 L 37.578125 53.421875 C 37.578125 53.441406 37.574219 53.484375 37.574219 53.507812 C 37.574219 57.355469 37.683594 61.324219 37.570312 65.121094 C 37.546875 65.90625 37.464844 66.40625 37.601562 67.179688 " data-index="3"></path>
<path style=" stroke:none;fill-rule:evenodd;fill:rgb(74.901962%,16.078432%,12.941177%);fill-opacity:1;" d="M 31.371094 18.765625 C 31.140625 19.472656 30.546875 20.824219 31.558594 21.796875 C 31.8125 22.042969 32.007812 22.109375 32.367188 22.113281 C 32.410156 22.113281 32.472656 22.101562 32.503906 22.097656 C 32.542969 22.097656 32.601562 22.089844 32.644531 22.078125 L 33.210938 21.613281 C 33.453125 21.09375 33.28125 21.355469 33.726562 20.980469 C 33.75 20.960938 33.785156 20.9375 33.804688 20.917969 C 33.828125 20.898438 33.863281 20.875 33.886719 20.855469 C 34.277344 20.515625 34.324219 20.324219 34.824219 20.027344 L 35.597656 19.605469 C 35.636719 19.582031 35.828125 19.457031 35.863281 19.433594 L 37.644531 18.664062 C 36.511719 12.480469 46.246094 12.671875 44.96875 18.644531 C 45.007812 18.671875 45.050781 18.710938 45.082031 18.730469 L 45.601562 19.035156 C 47.394531 19.734375 46.09375 19.027344 47.484375 20.0625 C 47.984375 20.433594 48.179688 20.5625 48.59375 21.265625 L 49.605469 22.074219 C 51.195312 22.617188 51.609375 20.554688 51.355469 19.105469 C 51.035156 17.875 48.542969 15.183594 47.671875 14.5 C 43.65625 11.339844 39.5625 11.113281 35.359375 14.265625 C 34.445312 14.949219 31.5 17.539062 31.371094 18.765625 " data-index="4"></path>
<path style="fill-rule: evenodd; fill: rgb(102, 173, 54); fill-opacity: 1; opacity: 1;" d="M 32.625 33.9375 L 46.363281 33.898438 C 45.882812 34.480469 46.492188 34.195312 45.484375 34.359375 L 43.101562 34.480469 L 37.644531 34.472656 C 37.535156 34.722656 37.53125 36.941406 37.554688 37.464844 C 37.578125 37.910156 37.546875 37.691406 37.667969 37.890625 L 37.902344 38.164062 C 37.910156 38.144531 37.953125 38.207031 37.964844 38.238281 C 37.832031 38.210938 37.46875 38.207031 37.359375 38.234375 C 36.851562 38.371094 37.558594 38.066406 37.007812 38.386719 L 36.621094 38.695312 C 37.898438 38.699219 37.539062 38.433594 37.554688 39.988281 C 37.5625 40.511719 37.65625 41.652344 37.503906 42.265625 L 47.449219 42.292969 C 47.203125 40.265625 47.480469 37.992188 47.40625 36.472656 C 47.367188 35.703125 47.304688 34.582031 47.632812 33.949219 C 48.089844 34.203125 49.398438 34.0625 50.058594 33.898438 C 50.28125 33.234375 50.089844 33.757812 49.910156 33.550781 L 32.769531 33.542969 C 32.601562 33.773438 32.609375 33.394531 32.625 33.9375 " data-index="5"></path>
<path style="fill-rule: evenodd; fill: rgb(74, 125, 41); fill-opacity: 1; opacity: 1;" d="M 58.101562 42.398438 L 53.335938 42.273438 C 53.65625 41.820312 53.390625 39.050781 53.378906 39.019531 C 54.492188 38.445312 54.367188 39.039062 55.449219 38.195312 C 56.074219 37.710938 55.933594 38.046875 56.683594 37.933594 C 57.476562 37.808594 57.261719 37.511719 57.890625 37.417969 C 58.171875 37.820312 58.019531 39.703125 58.011719 39.933594 C 57.976562 40.839844 57.996094 41.5 58.101562 42.398438 Z M 50.058594 33.898438 C 49.398438 34.0625 48.089844 34.203125 47.632812 33.949219 C 47.304688 34.582031 47.367188 35.703125 47.40625 36.472656 C 47.480469 37.992188 47.203125 40.265625 47.449219 42.292969 L 37.503906 42.265625 L 37.464844 42.320312 L 37.945312 42.476562 L 48.285156 42.449219 C 51.828125 42.402344 55.28125 42.539062 58.871094 42.445312 L 58.96875 33.605469 C 58.21875 34.25 58.859375 34.152344 58.371094 35.691406 C 57.730469 37.703125 56.617188 37.503906 55.683594 37.652344 C 54.988281 37.757812 54.140625 38.757812 52.835938 38.144531 C 52.402344 37.941406 52.503906 37.824219 52.125 37.769531 C 51.46875 37.671875 51.085938 38.066406 50.183594 37.558594 C 48.570312 36.65625 49.859375 35.03125 50.058594 33.898438 " data-index="6"></path>
<path style=" stroke:none;fill-rule:evenodd;fill:rgb(27.058825%,47.058824%,14.901961%);fill-opacity:1;" d="M 27.898438 42.339844 L 24.621094 42.230469 C 24.691406 41.683594 24.625 41.375 24.625 40.9375 C 24.605469 35.855469 24.421875 37.75 26.304688 37.941406 C 28.660156 38.183594 27.652344 39.816406 27.898438 42.339844 Z M 27.898438 42.339844 C 28.375 42.601562 32.058594 42.453125 33.203125 42.453125 C 33.632812 42.457031 34.742188 42.53125 35.097656 42.457031 L 35.398438 42.34375 L 33.785156 42.289062 C 33.96875 41.773438 33.878906 41.132812 33.875 40.527344 C 33.875 40.496094 33.875 40.453125 33.875 40.425781 C 33.875 40.394531 33.875 40.351562 33.875 40.320312 L 33.878906 40.019531 C 33.867188 39.289062 33.988281 40.746094 33.863281 39.730469 C 33.804688 39.222656 33.570312 39.367188 32.800781 39.453125 C 32.632812 39.46875 32.515625 39.472656 32.382812 39.484375 L 31.976562 39.523438 C 31.875 39.539062 31.667969 39.597656 31.65625 39.601562 C 31.332031 39.652344 31.832031 39.789062 31.402344 39.59375 C 30.96875 39.398438 31.234375 39.605469 31.25 39.414062 C 32.273438 39.078125 32.902344 39.136719 33.472656 38.996094 C 34.101562 38.839844 33.683594 39.003906 34.097656 38.722656 C 33.84375 38.234375 33.886719 38.546875 33.871094 37.742188 C 33.859375 36.867188 33.953125 34.734375 33.816406 34.257812 L 35.375 34.4375 C 35.621094 34.351562 41.882812 34.480469 43.101562 34.480469 L 45.484375 34.359375 C 46.492188 34.195312 45.882812 34.480469 46.363281 33.898438 L 32.625 33.9375 C 32.882812 34.953125 33.980469 36.523438 32.679688 37.449219 C 31.960938 37.960938 31.484375 37.734375 30.695312 37.792969 C 29.84375 37.855469 29.863281 38.453125 28.8125 38.320312 C 28.132812 38.234375 27.699219 37.789062 27.207031 37.660156 C 26.433594 37.464844 26.414062 37.851562 25.421875 37.207031 C 23.8125 36.160156 24.59375 34.546875 23.898438 33.746094 L 23.816406 42.382812 C 24.609375 42.578125 27.371094 42.644531 27.898438 42.339844 " data-index="7"></path>
<path style=" stroke:none;fill-rule:evenodd;fill:rgb(74.117649%,65.098041%,47.058824%);fill-opacity:1;" d="M 33.46875 27.671875 C 33.847656 27.167969 33.496094 26.878906 33.726562 26.195312 L 33.839844 25.933594 C 34.007812 25.542969 33.855469 25.863281 33.949219 25.683594 C 34.449219 25.785156 34.375 25.882812 34.882812 26.019531 C 35.105469 26.082031 35.578125 26.089844 35.589844 26.089844 C 35.222656 27.445312 35.015625 28.796875 35.515625 30.144531 C 35.527344 30.179688 35.542969 30.21875 35.554688 30.253906 C 35.660156 30.511719 35.707031 30.675781 35.933594 30.925781 C 36.210938 31.222656 36.636719 31.457031 37.089844 31.414062 C 36.796875 31.003906 34.691406 29.515625 35.90625 26.621094 C 36.191406 25.941406 36.871094 25.21875 37.789062 25.257812 C 38.988281 25.3125 39.210938 26.09375 39.679688 26.816406 C 39.707031 26.792969 39.746094 26.722656 39.757812 26.75 C 39.765625 26.777344 39.816406 26.703125 39.832031 26.695312 L 42.234375 26.632812 C 42.253906 26.628906 42.300781 26.625 42.316406 26.621094 C 42.332031 26.621094 42.378906 26.613281 42.390625 26.613281 C 42.414062 26.609375 42.457031 26.597656 42.503906 26.589844 C 42.75 26.96875 42.472656 28.210938 41.9375 28.292969 C 41.503906 28.363281 40.3125 28.261719 40.007812 28.203125 C 40.007812 28.859375 40.023438 28.613281 40.15625 28.769531 L 42.632812 28.734375 C 42.597656 26.414062 44.449219 23.808594 46.371094 26.011719 C 47.246094 27.019531 47.273438 29.632812 46.324219 30.648438 C 45.738281 31.273438 45.34375 30.8125 45.554688 31.773438 L 45.847656 31.636719 C 45.554688 31.570312 45.78125 31.726562 45.625 31.429688 C 47.460938 31.144531 47.503906 28.308594 47.167969 26.875 C 47.117188 26.664062 47.042969 26.410156 46.972656 26.097656 L 48.023438 25.921875 C 48.761719 25.761719 48.058594 25.8125 48.664062 25.828125 L 48.796875 26.128906 C 48.960938 26.753906 48.738281 28.480469 48.8125 28.898438 C 49.445312 28.113281 49.359375 26.105469 49.238281 24.992188 C 48.898438 24.558594 48 24.039062 47.304688 23.746094 L 47.652344 25.183594 C 47.117188 24.972656 46.015625 23.574219 44.207031 24.738281 C 44.070312 24.980469 44.339844 25.039062 43.910156 24.878906 L 43.265625 25.582031 C 43.296875 24.65625 43.726562 23.683594 44.234375 23.023438 L 44.519531 22.65625 C 42.707031 21.785156 39.902344 22.355469 38 22.605469 C 38.414062 23.332031 38.992188 23.484375 39.339844 25.535156 C 38.882812 25.285156 37.902344 23.679688 36.003906 24.539062 L 34.898438 25.226562 L 35.203125 23.875 C 34.59375 24.027344 33.53125 24.558594 33.359375 25.132812 C 33.175781 25.738281 33.265625 27.0625 33.46875 27.671875 " data-index="8"></path>
<path style="fill-rule: evenodd; fill: rgb(102, 171, 56); fill-opacity: 1; opacity: 1;" d="M 35.183594 66.375 C 35.316406 65.976562 35.335938 61.597656 35.273438 60.738281 C 35.132812 58.90625 35.304688 54.945312 35.257812 52.628906 L 35.257812 49.132812 C 35.402344 45.035156 35.238281 45.765625 34.019531 46.011719 C 33.792969 46.492188 33.949219 50.34375 33.925781 51.246094 L 33.886719 60.300781 C 33.941406 60.570312 33.949219 60.566406 33.957031 60.855469 C 33.984375 61.578125 33.671875 65.628906 34.089844 65.949219 C 34.429688 66.207031 34.738281 66.429688 35.183594 66.375 " data-index="9"></path>
<path style=" stroke:none;fill-rule:evenodd;fill:rgb(97.254902%,97.254902%,97.254902%);fill-opacity:1;" d="M 38.335938 18.503906 C 38.566406 17.671875 39.597656 15.871094 40.058594 15.101562 L 41.339844 16.242188 C 41.785156 16.003906 42.074219 15.453125 42.578125 15.058594 L 44.429688 18.300781 C 43.964844 18.558594 43.675781 18.832031 43.136719 19.007812 L 42.375 17.125 C 42.179688 17.285156 42.0625 17.414062 41.789062 17.691406 C 41.410156 18.070312 41.65625 17.96875 41.152344 18.171875 C 41.011719 17.949219 40.910156 17.78125 40.734375 17.558594 C 40.378906 17.121094 40.605469 17.277344 40.117188 17.089844 L 39.394531 19.027344 Z M 37.644531 18.664062 L 38.015625 19.425781 C 38.960938 19.433594 40.089844 19.144531 41.191406 19.125 C 42.464844 19.101562 43.375 19.265625 44.574219 19.453125 L 44.96875 18.644531 C 46.246094 12.671875 36.511719 12.480469 37.644531 18.664062 " data-index="10"></path>
<path style=" stroke:none;fill-rule:evenodd;fill:rgb(97.254902%,99.215686%,99.215686%);fill-opacity:1;" d="M 24.773438 34.859375 C 24.820312 34.863281 24.890625 34.835938 24.914062 34.886719 L 25.394531 34.972656 C 25.910156 34.941406 25.691406 34.480469 26.050781 32.710938 C 26.09375 32.5 26.101562 31.890625 26.121094 31.5625 C 26.769531 31.6875 27.164062 31.664062 27.070312 32.269531 C 26.660156 33.246094 26.703125 34.128906 26.84375 35.121094 L 27.691406 35.242188 C 27.71875 35.242188 27.761719 35.238281 27.792969 35.238281 C 27.820312 35.238281 27.863281 35.238281 27.894531 35.238281 C 27.925781 35.242188 27.96875 35.242188 28 35.242188 L 28.582031 35.292969 C 28.398438 34.4375 28.640625 32.914062 29.046875 32.140625 C 29.332031 31.597656 28.804688 31.742188 29.5 31.777344 C 29.53125 31.777344 30.355469 32.039062 29.640625 32.769531 C 29.339844 33.523438 29.492188 34.503906 29.628906 35.234375 C 30.15625 35.421875 30.320312 35.390625 30.941406 35.277344 C 31.433594 35.1875 31.640625 34.910156 31.664062 34.257812 C 32.152344 34.605469 31.773438 34.621094 31.976562 34.441406 L 31.839844 32.917969 C 31.542969 32.605469 31.804688 33.261719 31.65625 32.582031 C 31.917969 32.007812 31.8125 31.929688 32.242188 31.5625 C 31.800781 30.820312 30.398438 31.050781 29.742188 31.492188 C 29.597656 31.007812 29.828125 31.132812 29.289062 30.914062 C 28.347656 30.539062 27.5 31.300781 27.257812 31.355469 C 26.785156 31.457031 26.910156 31.203125 26.152344 31.300781 C 24.984375 31.453125 24.402344 33.453125 24.773438 34.859375 " data-index="11"></path>
<path style=" stroke:none;fill-rule:evenodd;fill:rgb(97.254902%,97.254902%,97.254902%);fill-opacity:1;" d="M 50.425781 31.582031 C 50.710938 32.023438 50.71875 31.78125 50.851562 32.214844 L 50.976562 33.101562 C 50.972656 33.511719 51.066406 33.292969 50.769531 33.554688 L 50.730469 33.847656 C 51.050781 34.230469 50.945312 34.40625 51.089844 35 C 51.472656 35.167969 51.949219 35.386719 52.210938 35.363281 C 52.789062 35.308594 52.789062 34.808594 53.1875 34.4375 L 52.925781 32.269531 C 52.542969 31.875 52.523438 32.121094 53.0625 31.894531 C 53.589844 31.671875 53.820312 32.355469 54.027344 33.078125 C 54.203125 33.691406 54.167969 33.773438 54.179688 34.332031 C 54.191406 34.894531 54.132812 34.0625 54.183594 34.632812 C 54.222656 35.082031 54.292969 35.125 54.332031 35.203125 C 54.683594 35.25 54.832031 35.347656 55.203125 35.238281 C 55.511719 35.140625 55.367188 35.242188 55.636719 34.894531 L 55.914062 34.480469 L 55.699219 32.308594 C 55.523438 32.152344 55.402344 32.660156 55.550781 31.820312 C 56.230469 31.617188 56.511719 31.644531 56.738281 33.152344 L 56.894531 34.078125 C 56.894531 34.105469 56.894531 33.964844 56.910156 34.367188 C 56.925781 34.726562 56.921875 34.804688 56.894531 34.976562 C 57.390625 35.0625 57.050781 35.101562 57.347656 34.992188 C 57.820312 34.820312 57.382812 34.796875 57.914062 34.867188 C 58.285156 33.476562 57.691406 31.433594 56.523438 31.289062 C 55.875 31.207031 55.714844 31.441406 55.523438 31.421875 C 55.300781 31.402344 54.683594 30.648438 53.632812 30.847656 C 52.914062 30.988281 53.085938 31.089844 52.929688 31.492188 C 52.269531 31.015625 50.898438 30.839844 50.425781 31.582031 " data-index="12"></path>
<path style=" stroke:none;fill-rule:evenodd;fill:rgb(40.000001%,67.058825%,21.960784%);fill-opacity:1;" d="M 58.101562 42.398438 C 57.996094 41.5 57.976562 40.839844 58.011719 39.933594 C 58.019531 39.703125 58.171875 37.820312 57.890625 37.417969 C 57.261719 37.511719 57.476562 37.808594 56.683594 37.933594 C 55.933594 38.046875 56.074219 37.710938 55.449219 38.195312 C 54.367188 39.039062 54.492188 38.445312 53.378906 39.019531 C 53.390625 39.050781 53.65625 41.820312 53.335938 42.273438 L 58.101562 42.398438 " data-index="13"></path>
<path style=" stroke:none;fill-rule:evenodd;fill:rgb(29.019609%,49.019608%,16.078432%);fill-opacity:1;" d="M 35.375 34.4375 C 35.210938 34.882812 35.28125 35.085938 35.285156 35.414062 C 35.285156 35.441406 35.289062 35.488281 35.289062 35.515625 C 35.289062 35.546875 35.285156 35.773438 35.285156 35.8125 C 35.273438 36.191406 35.265625 36.601562 35.277344 37.113281 C 35.328125 39.117188 34.410156 37.953125 34.097656 38.722656 C 34.171875 38.792969 34.03125 38.796875 34.414062 38.816406 C 34.449219 38.820312 34.554688 38.8125 34.59375 38.808594 C 34.925781 38.777344 35.25 38.660156 35.574219 38.570312 C 35.210938 39.421875 35.257812 39.117188 35.253906 39.976562 C 35.25 40.675781 35.148438 41.804688 35.398438 42.34375 C 36.09375 42.535156 36.851562 42.566406 37.464844 42.320312 L 37.503906 42.265625 C 37.65625 41.652344 37.5625 40.511719 37.554688 39.988281 C 37.539062 38.433594 37.898438 38.699219 36.621094 38.695312 L 37.007812 38.386719 C 37.558594 38.066406 36.851562 38.371094 37.359375 38.234375 C 37.46875 38.207031 37.832031 38.210938 37.964844 38.238281 C 37.953125 38.207031 37.910156 38.144531 37.902344 38.164062 L 37.667969 37.890625 C 37.546875 37.691406 37.578125 37.910156 37.554688 37.464844 C 37.53125 36.941406 37.535156 34.722656 37.644531 34.472656 L 43.101562 34.480469 C 41.882812 34.480469 35.621094 34.351562 35.375 34.4375 " data-index="14"></path>
<path style=" stroke:none;fill-rule:evenodd;fill:rgb(40.000001%,67.058825%,21.960784%);fill-opacity:1;" d="M 28.730469 60.949219 C 28.648438 60.242188 28.648438 52.867188 28.65625 51.757812 C 28.664062 50.808594 28.554688 49.429688 28.644531 48.808594 C 28.078125 48.980469 27.46875 49.730469 27.164062 50.140625 C 26.820312 50.601562 26.917969 50.636719 26.9375 51.472656 C 26.992188 53.773438 26.871094 54.132812 27.039062 56.503906 C 27.082031 57.0625 27.347656 58.371094 27.546875 58.964844 C 27.625 59.199219 27.542969 58.972656 27.636719 59.210938 C 27.78125 59.566406 28.207031 60.707031 28.730469 60.949219 " data-index="15"></path>
<path style=" stroke:none;fill-rule:evenodd;fill:rgb(50.980395%,10.980392%,10.980392%);fill-opacity:1;" d="M 33.945312 23.832031 C 36.214844 23.046875 36.726562 22.027344 40.59375 21.78125 C 42.042969 21.691406 43.34375 21.820312 44.671875 22.171875 C 45.785156 22.46875 46.808594 23.035156 47.859375 23.390625 C 47.941406 22.4375 47.621094 22.203125 46.964844 21.90625 C 44.992188 21.003906 42.796875 20.726562 40.59375 20.773438 C 38.796875 20.8125 33.625 21.4375 33.945312 23.832031 " data-index="16"></path>
<path style=" stroke:none;fill-rule:evenodd;fill:rgb(92.941177%,83.92157%,65.882355%);fill-opacity:1;" d="M 42.832031 30.246094 C 42.335938 31.464844 39.917969 31.328125 39.820312 30.378906 C 39.71875 29.363281 42.226562 29.136719 42.832031 30.246094 Z M 37.78125 31.101562 C 37.890625 31.757812 37.769531 31.691406 39.371094 32.320312 C 39.804688 32.492188 40.097656 32.429688 40.402344 32.453125 C 41.480469 32.535156 40.917969 32.582031 41.726562 32.507812 C 41.75 32.507812 41.792969 32.503906 41.816406 32.5 L 43.640625 32.195312 C 43.722656 32.160156 43.941406 32.050781 44.113281 31.957031 L 44.304688 31.851562 C 44.753906 31.570312 44.660156 31.640625 44.839844 31.269531 C 44.640625 28.65625 38.617188 28.394531 37.78125 31.101562 " data-index="17"></path>
<path style=" stroke:none;fill-rule:evenodd;fill:rgb(40.000001%,67.843139%,21.176471%);fill-opacity:1;" d="M 27.898438 42.339844 C 27.652344 39.816406 28.660156 38.183594 26.304688 37.941406 C 24.421875 37.75 24.605469 35.855469 24.625 40.9375 C 24.625 41.375 24.691406 41.683594 24.621094 42.230469 L 27.898438 42.339844 " data-index="18"></path>
<path style=" stroke:none;fill-rule:evenodd;fill:rgb(72.941178%,16.862746%,16.078432%);fill-opacity:1;" d="M 32.054688 24.992188 C 32.179688 24.582031 31.875 24.503906 32.289062 23.796875 C 32.503906 23.421875 32.878906 23.105469 33.136719 22.875 C 35.160156 21.09375 38.476562 20.460938 41.339844 20.46875 C 43.5 20.472656 45.523438 20.875 47.226562 21.664062 C 47.855469 21.953125 48.992188 22.652344 49.398438 23.015625 C 50.140625 23.675781 50.394531 24.066406 50.558594 25.339844 C 51.441406 23.695312 47.132812 19.65625 41.636719 19.589844 C 39.183594 19.558594 37.1875 20.078125 35.328125 20.941406 C 34.003906 21.554688 31.390625 23.304688 32.054688 24.992188 " data-index="19"></path>
<path style=" stroke:none;fill-rule:evenodd;fill:rgb(74.901962%,16.078432%,12.941177%);fill-opacity:1;" d="M 38.335938 18.503906 L 39.394531 19.027344 L 40.117188 17.089844 C 40.605469 17.277344 40.378906 17.121094 40.734375 17.558594 C 40.910156 17.78125 41.011719 17.949219 41.152344 18.171875 C 41.65625 17.96875 41.410156 18.070312 41.789062 17.691406 C 42.0625 17.414062 42.179688 17.285156 42.375 17.125 L 43.136719 19.007812 C 43.675781 18.832031 43.964844 18.558594 44.429688 18.300781 L 42.578125 15.058594 C 42.074219 15.453125 41.785156 16.003906 41.339844 16.242188 L 40.058594 15.101562 C 39.597656 15.871094 38.566406 17.671875 38.335938 18.503906 " data-index="20"></path>
<path style=" stroke:none;fill-rule:evenodd;fill:rgb(50.980395%,10.980392%,10.980392%);fill-opacity:1;" d="M 49.605469 22.074219 C 50.105469 22.976562 50.828125 23.394531 51.089844 24.257812 C 51.328125 25.03125 51.046875 25.160156 51.019531 25.621094 C 51 25.917969 51.273438 26.617188 51.433594 26.976562 C 53.765625 25.703125 52.867188 20.492188 51.355469 19.105469 C 51.609375 20.554688 51.195312 22.617188 49.605469 22.074219 " data-index="21"></path>
<path style=" stroke:none;fill-rule:evenodd;fill:rgb(50.980395%,10.980392%,10.980392%);fill-opacity:1;" d="M 32.644531 22.078125 C 32.601562 22.089844 32.542969 22.097656 32.503906 22.097656 C 32.472656 22.101562 32.410156 22.113281 32.367188 22.113281 C 32.007812 22.109375 31.8125 22.042969 31.558594 21.796875 C 30.546875 20.824219 31.140625 19.472656 31.371094 18.765625 C 29.917969 19.664062 28.734375 25.308594 31.144531 26.820312 C 31.167969 26.78125 31.195312 26.675781 31.207031 26.699219 L 31.414062 26.246094 C 32.121094 24.628906 30.796875 24.648438 31.839844 23.203125 C 32.238281 22.652344 32.292969 22.777344 32.644531 22.078125 " data-index="22"></path>
<path style=" stroke:none;fill-rule:evenodd;fill:rgb(92.941177%,83.92157%,65.882355%);fill-opacity:1;" d="M 33.46875 27.671875 C 33.683594 28.695312 33.792969 29.617188 33.347656 30.492188 L 33.339844 31.117188 C 33.820312 31.570312 33.363281 31.453125 33.953125 31.507812 L 34.34375 30.121094 C 35.269531 30.886719 35.085938 31.425781 36.90625 31.78125 C 37.035156 31.617188 37.039062 31.851562 37.089844 31.414062 C 36.636719 31.457031 36.210938 31.222656 35.933594 30.925781 C 35.707031 30.675781 35.660156 30.511719 35.554688 30.253906 C 35.542969 30.21875 35.527344 30.179688 35.515625 30.144531 C 35.015625 28.796875 35.222656 27.445312 35.589844 26.089844 C 35.578125 26.089844 35.105469 26.082031 34.882812 26.019531 C 34.375 25.882812 34.449219 25.785156 33.949219 25.683594 C 33.855469 25.863281 34.007812 25.542969 33.839844 25.933594 L 33.726562 26.195312 C 33.496094 26.878906 33.847656 27.167969 33.46875 27.671875 " data-index="23"></path>
<path style=" stroke:none;fill-rule:evenodd;fill:rgb(92.941177%,83.92157%,65.882355%);fill-opacity:1;" d="M 45.847656 31.636719 C 46.90625 31.679688 47.769531 30.742188 48.140625 30.144531 L 48.585938 31.003906 L 48.886719 31.730469 C 48.84375 31.234375 48.910156 31.035156 49.339844 30.679688 C 48.988281 29.96875 48.917969 29.964844 48.8125 28.898438 C 48.738281 28.480469 48.960938 26.753906 48.796875 26.128906 L 48.664062 25.828125 C 48.058594 25.8125 48.761719 25.761719 48.023438 25.921875 L 46.972656 26.097656 C 47.042969 26.410156 47.117188 26.664062 47.167969 26.875 C 47.503906 28.308594 47.460938 31.144531 45.625 31.429688 C 45.78125 31.726562 45.554688 31.570312 45.847656 31.636719 " data-index="24"></path>
<path style=" stroke:none;fill-rule:evenodd;fill:rgb(74.901962%,83.137256%,90.980393%);fill-opacity:1;" d="M 52.925781 32.269531 L 53.269531 32.21875 C 53.359375 33.203125 54.410156 35.042969 52.636719 37.199219 C 54.433594 38.789062 55.914062 36.304688 55.914062 34.480469 L 55.636719 34.894531 C 55.367188 35.242188 55.511719 35.140625 55.203125 35.238281 C 54.832031 35.347656 54.683594 35.25 54.332031 35.203125 C 54.292969 35.125 54.222656 35.082031 54.183594 34.632812 C 54.132812 34.0625 54.191406 34.894531 54.179688 34.332031 C 54.167969 33.773438 54.203125 33.691406 54.027344 33.078125 C 53.820312 32.355469 53.589844 31.671875 53.0625 31.894531 C 52.523438 32.121094 52.542969 31.875 52.925781 32.269531 " data-index="25"></path>
<path style=" stroke:none;fill-rule:evenodd;fill:rgb(74.901962%,83.137256%,90.980393%);fill-opacity:1;" d="M 26.84375 35.121094 C 27.027344 36.695312 28.566406 38.726562 30.039062 37.210938 C 29.179688 35.960938 28.480469 34.09375 29.515625 32.28125 C 29.757812 32.605469 29.640625 32.183594 29.640625 32.769531 C 30.355469 32.039062 29.53125 31.777344 29.5 31.777344 C 28.804688 31.742188 29.332031 31.597656 29.046875 32.140625 C 28.640625 32.914062 28.398438 34.4375 28.582031 35.292969 L 28 35.242188 C 27.96875 35.242188 27.925781 35.242188 27.894531 35.238281 C 27.863281 35.238281 27.820312 35.238281 27.792969 35.238281 C 27.761719 35.238281 27.71875 35.242188 27.691406 35.242188 L 26.84375 35.121094 " data-index="26"></path>
<path style=" stroke:none;fill-rule:evenodd;fill:rgb(74.117649%,65.098041%,47.058824%);fill-opacity:1;" d="M 44.839844 31.269531 C 44.660156 31.640625 44.753906 31.570312 44.304688 31.851562 L 44.113281 31.957031 C 43.941406 32.050781 43.722656 32.160156 43.640625 32.195312 L 41.816406 32.5 C 41.792969 32.503906 41.75 32.507812 41.726562 32.507812 C 40.917969 32.582031 41.480469 32.535156 40.402344 32.453125 C 40.097656 32.429688 39.804688 32.492188 39.371094 32.320312 C 37.769531 31.691406 37.890625 31.757812 37.78125 31.101562 C 37.414062 31.789062 37.492188 32.328125 37.777344 33.042969 L 44.84375 33.046875 C 45.039062 32.359375 45.25 31.785156 44.839844 31.269531 " data-index="27"></path>
<path style=" stroke:none;fill-rule:evenodd;fill:rgb(40.000001%,67.058825%,21.960784%);fill-opacity:1;" d="M 35.398438 42.34375 C 35.148438 41.804688 35.25 40.675781 35.253906 39.976562 C 35.257812 39.117188 35.210938 39.421875 35.574219 38.570312 C 35.25 38.660156 34.925781 38.777344 34.59375 38.808594 C 34.554688 38.8125 34.449219 38.820312 34.414062 38.816406 C 34.03125 38.796875 34.171875 38.792969 34.097656 38.722656 C 33.683594 39.003906 34.101562 38.839844 33.472656 38.996094 C 32.902344 39.136719 32.273438 39.078125 31.25 39.414062 C 31.234375 39.605469 30.96875 39.398438 31.402344 39.59375 C 31.832031 39.789062 31.332031 39.652344 31.65625 39.601562 C 31.667969 39.597656 31.875 39.539062 31.976562 39.523438 L 32.382812 39.484375 C 32.515625 39.472656 32.632812 39.46875 32.800781 39.453125 C 33.570312 39.367188 33.804688 39.222656 33.863281 39.730469 C 33.988281 40.746094 33.867188 39.289062 33.878906 40.019531 L 33.875 40.320312 C 33.875 40.351562 33.875 40.394531 33.875 40.425781 C 33.875 40.453125 33.875 40.496094 33.875 40.527344 C 33.878906 41.132812 33.96875 41.773438 33.785156 42.289062 L 35.398438 42.34375 " data-index="28"></path>
<path style=" stroke:none;fill-rule:evenodd;fill:rgb(72.156864%,81.960785%,92.156863%);fill-opacity:1;" d="M 53.1875 34.4375 C 52.789062 34.808594 52.789062 35.308594 52.210938 35.363281 C 51.949219 35.386719 51.472656 35.167969 51.089844 35 C 50.945312 34.40625 51.050781 34.230469 50.730469 33.847656 C 50.496094 34.636719 49.929688 35.734375 50.042969 36.523438 C 50.527344 37.304688 51.46875 37.539062 52.210938 36.90625 C 52.820312 36.378906 53.109375 35.460938 53.1875 34.4375 " data-index="29"></path>
<path style=" stroke:none;fill-rule:evenodd;fill:rgb(29.019609%,21.176471%,10.980392%);fill-opacity:1;" d="M 50.894531 30.5 C 50.980469 28.402344 51.074219 26.921875 49.960938 25.570312 C 49.75 25.8125 49.566406 27.914062 49.378906 28.894531 C 49.265625 29.496094 49.238281 30.066406 49.746094 30.308594 C 50.191406 30.519531 50.394531 30.285156 50.441406 30.28125 C 50.453125 30.28125 50.488281 30.273438 50.496094 30.273438 L 50.804688 30.445312 C 50.820312 30.457031 50.859375 30.496094 50.894531 30.5 " data-index="30"></path>
<path style=" stroke:none;fill-rule:evenodd;fill:rgb(40.000001%,67.058825%,21.960784%);fill-opacity:1;" d="M 34.097656 38.722656 C 34.410156 37.953125 35.328125 39.117188 35.277344 37.113281 C 35.265625 36.601562 35.273438 36.191406 35.285156 35.8125 C 35.285156 35.773438 35.289062 35.546875 35.289062 35.515625 C 35.289062 35.488281 35.285156 35.441406 35.285156 35.414062 C 35.28125 35.085938 35.210938 34.882812 35.375 34.4375 L 33.816406 34.257812 C 33.953125 34.734375 33.859375 36.867188 33.871094 37.742188 C 33.886719 38.546875 33.84375 38.234375 34.097656 38.722656 " data-index="31"></path>
<path style=" stroke:none;fill-rule:evenodd;fill:rgb(36.862746%,21.960784%,10.980392%);fill-opacity:1;" d="M 31.753906 30.503906 L 32.316406 30.675781 C 32.324219 30.625 32.199219 30.363281 32.144531 30.074219 C 32.480469 30.199219 32.671875 30.222656 33.050781 30.109375 C 33.289062 29.234375 33.167969 28.699219 32.976562 27.863281 C 32.777344 26.984375 32.867188 26.289062 32.71875 25.496094 C 31.539062 26.515625 31.523438 28.609375 31.753906 30.503906 " data-index="32"></path>
<path style=" stroke:none;fill-rule:evenodd;fill:rgb(72.156864%,81.960785%,92.156863%);fill-opacity:1;" d="M 29.628906 35.234375 C 30.054688 37.507812 31.257812 37.367188 32.546875 36.910156 C 32.71875 36.023438 32.714844 35.152344 31.976562 34.441406 C 31.773438 34.621094 32.152344 34.605469 31.664062 34.257812 C 31.640625 34.910156 31.433594 35.1875 30.941406 35.277344 C 30.320312 35.390625 30.15625 35.421875 29.628906 35.234375 " data-index="33"></path>
<path style=" stroke:none;fill-rule:evenodd;fill:rgb(97.254902%,97.254902%,97.254902%);fill-opacity:1;" d="M 37.375 30.746094 C 37.292969 29.574219 35.863281 27.003906 38.484375 26.089844 C 38.511719 26.078125 38.578125 26.089844 38.601562 26.039062 C 38.621094 25.992188 38.679688 26.011719 38.714844 25.988281 C 35.304688 24.214844 35.382812 30.953125 37.375 30.746094 " data-index="34"></path>
<path style=" stroke:none;fill-rule:evenodd;fill:rgb(97.254902%,97.254902%,97.254902%);fill-opacity:1;" d="M 43.738281 26.386719 C 44.632812 25.632812 45.355469 26.707031 45.578125 27.519531 C 45.910156 28.75 45.671875 29.601562 45.195312 30.53125 C 45.335938 30.898438 45.09375 30.675781 45.519531 30.820312 C 48.367188 28.566406 45.25 23.636719 43.738281 26.386719 " data-index="35"></path>
<path style=" stroke:none;fill-rule:evenodd;fill:rgb(74.901962%,83.137256%,90.980393%);fill-opacity:1;" d="M 24.773438 34.859375 C 24.925781 35.933594 25.527344 37.136719 26.792969 37.039062 C 27.019531 36.296875 26.464844 36.488281 26.304688 34.765625 C 26.171875 33.386719 26.554688 33.132812 26.703125 32.121094 L 27.070312 32.269531 C 27.164062 31.664062 26.769531 31.6875 26.121094 31.5625 C 26.101562 31.890625 26.09375 32.5 26.050781 32.710938 C 25.691406 34.480469 25.910156 34.941406 25.394531 34.972656 L 24.914062 34.886719 C 24.890625 34.835938 24.820312 34.863281 24.773438 34.859375 " data-index="36"></path>
<path style=" stroke:none;fill-rule:evenodd;fill:rgb(74.901962%,83.137256%,90.980393%);fill-opacity:1;" d="M 55.699219 32.308594 C 55.839844 32.085938 55.832031 32.234375 56.011719 32.125 C 56.214844 34.121094 56.980469 33.644531 55.738281 36.933594 C 56.953125 37.394531 57.722656 35.996094 57.914062 34.867188 C 57.382812 34.796875 57.820312 34.820312 57.347656 34.992188 C 57.050781 35.101562 57.390625 35.0625 56.894531 34.976562 C 56.921875 34.804688 56.925781 34.726562 56.910156 34.367188 C 56.894531 33.964844 56.894531 34.105469 56.894531 34.078125 L 56.738281 33.152344 C 56.511719 31.644531 56.230469 31.617188 55.550781 31.820312 C 55.402344 32.660156 55.523438 32.152344 55.699219 32.308594 " data-index="37"></path>
<path style=" stroke:none;fill-rule:evenodd;fill:rgb(92.941177%,83.92157%,65.882355%);fill-opacity:1;" d="M 39.679688 26.816406 L 40.007812 28.203125 C 40.3125 28.261719 41.503906 28.363281 41.9375 28.292969 C 42.472656 28.210938 42.75 26.96875 42.503906 26.589844 C 42.457031 26.597656 42.414062 26.609375 42.390625 26.613281 C 42.378906 26.613281 42.332031 26.621094 42.316406 26.621094 C 42.300781 26.625 42.253906 26.628906 42.234375 26.632812 L 39.832031 26.695312 C 39.816406 26.703125 39.765625 26.777344 39.757812 26.75 C 39.746094 26.722656 39.707031 26.792969 39.679688 26.816406 " data-index="38"></path>
<path style=" stroke:none;fill-rule:evenodd;fill:rgb(23.137255%,41.176471%,69.01961%);fill-opacity:1;" d="M 37.375 30.746094 L 37.910156 29.96875 C 37.6875 29.402344 37.46875 28.910156 37.507812 28.203125 L 37.929688 27.898438 C 37.515625 27.921875 38.050781 27.988281 37.390625 27.8125 L 37.464844 27.457031 C 37.496094 27.4375 37.535156 27.402344 37.554688 27.398438 C 37.902344 27.285156 37.675781 27.339844 37.941406 27.378906 C 39.136719 26.273438 39.390625 28.492188 39.390625 28.496094 C 39.402344 28.539062 39.410156 28.582031 39.421875 28.621094 L 39.578125 28.953125 C 39.648438 27.613281 39.328125 26.746094 38.714844 25.988281 C 38.679688 26.011719 38.621094 25.992188 38.601562 26.039062 C 38.578125 26.089844 38.511719 26.078125 38.484375 26.089844 C 35.863281 27.003906 37.292969 29.574219 37.375 30.746094 " data-index="39"></path>
<path style=" stroke:none;fill-rule:evenodd;fill:rgb(23.137255%,41.176471%,69.01961%);fill-opacity:1;" d="M 43.738281 26.386719 C 43.710938 26.417969 43.671875 26.425781 43.65625 26.484375 C 43.640625 26.566406 43.296875 26.777344 43.152344 27.488281 C 43.117188 27.667969 43.054688 28.15625 43.042969 28.289062 C 43.015625 28.613281 42.992188 28.6875 43.113281 28.914062 C 43.25 28.679688 43.222656 28.558594 43.289062 28.21875 C 43.460938 27.300781 43.992188 26.71875 44.664062 27.332031 L 45.191406 27.414062 C 45.121094 28.089844 45.34375 27.855469 44.738281 27.917969 L 45.128906 28.15625 C 45.140625 29.386719 44.960938 29.199219 44.75 30.101562 L 45.195312 30.53125 C 45.671875 29.601562 45.910156 28.75 45.578125 27.519531 C 45.355469 26.707031 44.632812 25.632812 43.738281 26.386719 " data-index="40"></path>
<path style=" stroke:none;fill-rule:evenodd;fill:rgb(97.254902%,97.254902%,97.254902%);fill-opacity:1;" d="M 42.832031 30.246094 C 42.226562 29.136719 39.71875 29.363281 39.820312 30.378906 C 39.917969 31.328125 42.335938 31.464844 42.832031 30.246094 " data-index="41"></path>
<path style=" stroke:none;fill-rule:evenodd;fill:rgb(92.941177%,83.92157%,65.882355%);fill-opacity:1;" d="M 29.398438 30.1875 C 29.554688 29.945312 29.417969 29.820312 29.460938 29.382812 C 29.753906 28.640625 29.679688 28.742188 30.445312 28.429688 L 30.785156 28.40625 C 30.636719 28.089844 30.753906 28.164062 30.769531 27.851562 C 30.800781 27.292969 30.804688 27.824219 30.683594 27.164062 C 30.359375 26.9375 30.519531 26.996094 30.109375 26.8125 C 28.777344 27.28125 28.765625 28.589844 28.964844 30.113281 C 29.394531 30.414062 29.0625 30.179688 29.398438 30.1875 " data-index="42"></path>
<path style=" stroke:none;fill-rule:evenodd;fill:rgb(92.941177%,83.92157%,65.882355%);fill-opacity:1;" d="M 51.972656 27.296875 C 51.757812 28.035156 51.816406 27.785156 51.921875 28.441406 L 52.230469 28.4375 C 52.710938 28.675781 52.753906 28.59375 53.015625 29.003906 C 53.257812 29.320312 53.082031 28.566406 53.308594 29.515625 C 52.542969 29.675781 53.597656 29.378906 52.980469 30.011719 C 53.1875 30.214844 52.71875 30.195312 53.273438 30.1875 C 53.414062 30.15625 53.640625 30.398438 53.738281 29.527344 C 53.863281 28.4375 53.671875 27.269531 52.570312 26.820312 C 52.128906 27.019531 52.214844 26.980469 51.972656 27.296875 " data-index="43"></path>
<path style=" stroke:none;fill-rule:evenodd;fill:rgb(54.901963%,10.196079%,10.980392%);fill-opacity:1;" d="M 33.210938 21.613281 C 33.710938 21.382812 33.8125 21.269531 34.296875 20.964844 C 35.425781 20.265625 37.117188 19.832031 38.015625 19.425781 L 37.644531 18.664062 L 35.863281 19.433594 C 35.828125 19.457031 35.636719 19.582031 35.597656 19.605469 L 34.824219 20.027344 C 34.324219 20.324219 34.277344 20.515625 33.886719 20.855469 C 33.863281 20.875 33.828125 20.898438 33.804688 20.917969 C 33.785156 20.9375 33.75 20.960938 33.726562 20.980469 C 33.28125 21.355469 33.453125 21.09375 33.210938 21.613281 " data-index="44"></path>
<path style=" stroke:none;fill-rule:evenodd;fill:rgb(54.901963%,10.196079%,10.980392%);fill-opacity:1;" d="M 44.574219 19.453125 C 45.296875 19.710938 45.972656 19.890625 46.664062 20.179688 C 47.375 20.480469 47.789062 20.929688 48.59375 21.265625 C 48.179688 20.5625 47.984375 20.433594 47.484375 20.0625 C 46.09375 19.027344 47.394531 19.734375 45.601562 19.035156 L 45.082031 18.730469 C 45.050781 18.710938 45.007812 18.671875 44.96875 18.644531 L 44.574219 19.453125 " data-index="45"></path>
<path style=" stroke:none;fill-rule:evenodd;fill:rgb(69.803923%,63.921571%,45.882353%);fill-opacity:1;" d="M 53.273438 30.1875 C 52.71875 30.195312 53.1875 30.214844 52.980469 30.011719 C 53.597656 29.378906 52.542969 29.675781 53.308594 29.515625 C 53.082031 28.566406 53.257812 29.320312 53.015625 29.003906 C 53.019531 29.609375 53.035156 28.96875 52.304688 29.089844 C 51.996094 29.140625 51.929688 29.285156 51.609375 29.449219 L 52.421875 30.617188 C 52.78125 30.574219 52.707031 30.609375 52.9375 30.484375 C 53.425781 30.21875 53.132812 30.335938 53.273438 30.1875 " data-index="46"></path>
<path style=" stroke:none;fill-rule:evenodd;fill:rgb(69.803923%,63.921571%,45.882353%);fill-opacity:1;" d="M 29.460938 29.382812 C 29.417969 29.820312 29.554688 29.945312 29.398438 30.1875 C 29.695312 30.503906 29.78125 30.566406 30.214844 30.621094 C 30.449219 30.222656 30.769531 29.785156 30.980469 29.476562 C 30.203125 28.847656 30.097656 29.0625 29.460938 29.382812 " data-index="47"></path>
<path style=" stroke:none;fill-rule:evenodd;fill:rgb(29.019609%,21.960784%,18.039216%);fill-opacity:1;" d="M 45.667969 32.289062 L 45.519531 32.796875 C 46.734375 32.820312 48.1875 32.015625 48.113281 30.863281 C 46.277344 32.585938 47.007812 31.640625 45.667969 32.289062 " data-index="48"></path>
<path style=" stroke:none;fill-rule:evenodd;fill:rgb(29.019609%,21.960784%,18.039216%);fill-opacity:1;" d="M 37.171875 32.835938 C 36.824219 31.644531 36.511719 32.570312 35.171875 31.503906 L 34.609375 31.003906 C 34.585938 30.984375 34.539062 30.953125 34.507812 30.929688 C 34.699219 32.054688 35.972656 32.8125 37.171875 32.835938 " data-index="49"></path>
<path style=" stroke:none;fill-rule:evenodd;fill:rgb(69.803923%,63.921571%,45.882353%);fill-opacity:1;" d="M 48.585938 31.003906 C 48.679688 32.222656 48.671875 32.050781 48.308594 33.113281 C 49 32.792969 48.464844 33.339844 48.890625 32.589844 C 49.464844 31.570312 50.117188 31.0625 49.339844 30.679688 C 48.910156 31.035156 48.84375 31.234375 48.886719 31.730469 L 48.585938 31.003906 " data-index="50"></path>
<path style=" stroke:none;fill-rule:evenodd;fill:rgb(29.019609%,21.960784%,18.039216%);fill-opacity:1;" d="M 43.910156 24.878906 C 44.339844 25.039062 44.070312 24.980469 44.207031 24.738281 C 43.65625 24.359375 45.496094 23.597656 46.925781 24.371094 C 46.726562 23.710938 45.90625 23.542969 45.324219 23.597656 C 44.675781 23.664062 44.089844 24.019531 43.753906 24.578125 L 43.910156 24.878906 " data-index="51"></path>
<path style=" stroke:none;fill-rule:evenodd;fill:rgb(70.980394%,78.039217%,83.92157%);fill-opacity:1;" d="M 50.769531 33.554688 C 51.066406 33.292969 50.972656 33.511719 50.976562 33.101562 L 50.851562 32.214844 C 50.71875 31.78125 50.710938 32.023438 50.425781 31.582031 C 49.933594 31.855469 49.683594 32.25 49.53125 32.8125 C 50.382812 32.851562 50.046875 32.742188 50.65625 32.398438 L 50.769531 33.554688 " data-index="52"></path>
<path style=" stroke:none;fill-rule:evenodd;fill:rgb(74.117649%,65.098041%,47.058824%);fill-opacity:1;" d="M 33.953125 31.507812 C 33.363281 31.453125 33.820312 31.570312 33.339844 31.117188 L 33.347656 30.492188 C 32.6875 30.828125 32.859375 31.101562 33.292969 31.773438 C 33.808594 32.570312 33.75 32.84375 34.234375 33.039062 C 34.082031 32.441406 33.941406 32.316406 33.953125 31.507812 " data-index="53"></path>
<path style=" stroke:none;fill-rule:evenodd;fill:rgb(74.901962%,83.137256%,90.980393%);fill-opacity:1;" d="M 31.839844 32.917969 L 31.996094 32.714844 C 32.023438 32.675781 32.179688 32.433594 32.1875 32.421875 C 32.554688 32.765625 32.421875 32.804688 33.066406 32.84375 C 33.039062 32.277344 32.691406 31.847656 32.242188 31.5625 C 31.8125 31.929688 31.917969 32.007812 31.65625 32.582031 C 31.804688 33.261719 31.542969 32.605469 31.839844 32.917969 " data-index="54"></path>
<path style=" stroke:none;fill-rule:evenodd;fill:rgb(69.01961%,65.098041%,54.901963%);fill-opacity:1;" d="M 52.230469 28.4375 L 51.921875 28.441406 C 51.816406 27.785156 51.757812 28.035156 51.972656 27.296875 L 51.382812 27.503906 L 51.328125 28.976562 C 51.582031 28.824219 51.988281 28.644531 52.230469 28.4375 " data-index="55"></path>
<path style=" stroke:none;fill-rule:evenodd;fill:rgb(69.803923%,63.921571%,45.882353%);fill-opacity:1;" d="M 30.445312 28.429688 C 30.617188 28.605469 30.386719 28.453125 30.777344 28.699219 C 30.996094 28.835938 31.015625 28.828125 31.195312 28.925781 L 31.230469 27.441406 L 30.683594 27.164062 C 30.804688 27.824219 30.800781 27.292969 30.769531 27.851562 C 30.753906 28.164062 30.636719 28.089844 30.785156 28.40625 L 30.445312 28.429688 " data-index="56"></path>
<path style=" stroke:none;fill-rule:evenodd;fill:rgb(92.941177%,92.156863%,92.941177%);fill-opacity:1;" d="M 44.738281 27.917969 C 45.34375 27.855469 45.121094 28.089844 45.191406 27.414062 L 44.664062 27.332031 C 44.515625 27.886719 44.515625 27.539062 44.738281 27.917969 " data-index="57"></path>
<path style=" stroke:none;fill-rule:evenodd;fill:rgb(94.117647%,98.039216%,98.039216%);fill-opacity:1;" d="M 37.929688 27.898438 L 37.941406 27.378906 C 37.675781 27.339844 37.902344 27.285156 37.554688 27.398438 C 37.535156 27.402344 37.496094 27.4375 37.464844 27.457031 L 37.390625 27.8125 C 38.050781 27.988281 37.515625 27.921875 37.929688 27.898438 " data-index="58"></path>
<path style=" stroke:none;fill-rule:evenodd;fill:rgb(69.01961%,65.098041%,54.901963%);fill-opacity:1;" d="M 51.429688 30.394531 C 51.519531 30.433594 51.382812 30.496094 51.695312 30.476562 C 51.941406 30.464844 51.863281 30.441406 51.953125 30.394531 C 51.347656 29.941406 51.554688 30.273438 51.429688 30.394531 " data-index="59"></path>
</g>
</svg>